<svg width="24" height="24" viewBox="0 0 24 24" fill="none" xmlns="http://www.w3.org/2000/svg">
<path d="M4.03984 23.4981C6.00694 23.4981 7.60159 21.9034 7.60159 19.9363C7.60159 17.9692 6.00694 16.3746 4.03984 16.3746C2.07274 16.3746 0.478088 17.9692 0.478088 19.9363C0.478088 21.9034 2.07274 23.4981 4.03984 23.4981Z" fill="#50A5DC"/>
<path d="M19.9602 23.4981C21.9273 23.4981 23.5219 21.9034 23.5219 19.9363C23.5219 17.9692 21.9273 16.3746 19.9602 16.3746C17.9931 16.3746 16.3984 17.9692 16.3984 19.9363C16.3984 21.9034 17.9931 23.4981 19.9602 23.4981Z" fill="#50A5DC"/>
<path d="M12 7.62554C13.9671 7.62554 15.5618 6.03089 15.5618 4.06379C15.5618 2.09669 13.9671 0.502045 12 0.502045C10.0329 0.502045 8.43825 2.09669 8.43825 4.06379C8.43825 6.03089 10.0329 7.62554 12 7.62554Z" fill="#50A5DC"/>
<path d="M19.9602 15.8965C19.0183 15.8965 18.1515 16.2213 17.4637 16.7637L16.2345 15.5345C16.0477 15.3478 15.7451 15.3478 15.5583 15.5345C15.3716 15.7212 15.3716 16.0239 15.5583 16.2107L16.7875 17.4399C16.2452 18.1276 15.9203 18.9945 15.9203 19.9363C15.9203 22.1639 17.7326 23.9761 19.9602 23.9761C22.1878 23.9761 24 22.1639 24 19.9363C24 17.7088 22.1878 15.8965 19.9602 15.8965ZM19.9602 23.02C18.2598 23.02 16.8765 21.6366 16.8765 19.9363C16.8765 18.236 18.2598 16.8527 19.9602 16.8527C21.6605 16.8527 23.0438 18.236 23.0438 19.9363C23.0438 21.6366 21.6605 23.02 19.9602 23.02Z" fill="black"/>
<path d="M10.2277 13.0246L6.50955 16.7427C5.82612 16.2129 4.96948 15.8965 4.03984 15.8965C1.81229 15.8965 0 17.7087 0 19.9363C0 22.1638 1.81229 23.9761 4.03984 23.9761C6.26739 23.9761 8.07968 22.1638 8.07968 19.9363C8.07968 18.9823 7.7465 18.105 7.19139 17.4131L10.9038 13.7007C11.0905 13.514 11.0905 13.2112 10.9038 13.0245C10.7171 12.8378 10.4144 12.8378 10.2277 13.0246ZM7.12351 19.9363C7.12351 21.6366 5.74016 23.02 4.03984 23.02C2.33952 23.02 0.956175 21.6366 0.956175 19.9363C0.956175 18.236 2.33952 16.8526 4.03984 16.8526C4.70558 16.8526 5.32217 17.0654 5.82669 17.4255L3.67788 19.5743C3.49119 19.761 3.49119 20.0637 3.67788 20.2504C3.77125 20.3438 3.89359 20.3905 4.01594 20.3905C4.13828 20.3905 4.26067 20.3438 4.35399 20.2504L6.51088 18.0936C6.89551 18.608 7.12351 19.246 7.12351 19.9363Z" fill="black"/>
<path d="M12.4542 11.7541V8.07734C14.4687 7.85082 16.0398 6.13769 16.0398 4.0637C16.0398 1.83615 14.2276 0.0238647 12 0.0238647C9.77245 0.0238647 7.96016 1.83615 7.96016 4.0637C7.96016 6.1212 9.50663 7.82314 11.498 8.07122V11.9283C11.498 12.0146 11.5212 12.0953 11.5612 12.1652C11.5844 12.2192 11.6178 12.27 11.6619 12.3141L14.2914 14.9436C14.3847 15.037 14.5071 15.0837 14.6294 15.0837C14.7518 15.0837 14.8741 15.037 14.9675 14.9436C15.1542 14.7569 15.1542 14.4542 14.9675 14.2675L12.4542 11.7541ZM8.91633 4.0638C8.91633 2.36348 10.2997 0.980135 12 0.980135C13.7003 0.980135 15.0837 2.36348 15.0837 4.0638C15.0837 5.76411 13.7003 7.14746 12 7.14746C10.2997 7.14746 8.91633 5.76411 8.91633 4.0638Z" fill="black"/>
<path d="M10.6145 2.20443C10.0301 2.64044 9.68127 3.33553 9.68127 4.0638C9.68127 4.32785 9.89532 4.54189 10.1594 4.54189C10.4234 4.54189 10.6375 4.32785 10.6375 4.0638C10.6375 3.62941 10.8375 3.23102 11.1863 2.97075C11.3979 2.81284 11.4414 2.51332 11.2835 2.30167C11.1257 2.09002 10.8261 2.04652 10.6145 2.20443Z" fill="black"/>
<path d="M12.2483 2.72371C12.4397 2.75889 12.6181 2.83343 12.7784 2.94525C12.8617 3.00339 12.957 3.03131 13.0515 3.03131C13.2025 3.03131 13.3511 2.95993 13.444 2.82674C13.5951 2.61021 13.542 2.31217 13.3255 2.16109C13.0523 1.97048 12.748 1.84336 12.421 1.78331C12.1615 1.7355 11.9121 1.90742 11.8645 2.16712C11.8167 2.42682 11.9886 2.67599 12.2483 2.72371Z" fill="black"/>
</svg>
