<svg width="24" height="24" viewBox="0 0 24 24" fill="none" xmlns="http://www.w3.org/2000/svg">
<g clip-path="url(#clip0_15_559)">
<path d="M10.4169 22.1383C10.4169 23.0058 9.6279 23.658 8.77539 23.4978C7.05362 23.1742 5.46971 22.3422 4.20395 21.0764C2.54438 19.4169 1.63046 17.2104 1.63046 14.8635C1.63046 12.5166 2.54438 10.3101 4.20395 8.65059C5.60246 7.25208 7.38939 6.38316 9.32148 6.14438L8.40878 5.23167C7.87614 4.69903 7.84346 3.83114 8.36134 3.28406C8.89862 2.71645 9.79454 2.70717 10.3435 3.25617L13.6985 6.61116C14.2384 7.15106 14.2384 8.02641 13.6985 8.56627L10.3435 11.9213C10.0736 12.1912 9.71978 12.3262 9.36596 12.3262C9.00217 12.3262 8.63842 12.1835 8.36579 11.8981C7.84379 11.3518 7.8737 10.4808 8.40803 9.9465L9.4315 8.92303C6.5784 9.39469 4.39534 11.8787 4.39534 14.8635C4.39534 17.8009 6.50949 20.2538 9.29612 20.7804C9.94736 20.9034 10.4169 21.4755 10.4169 22.1383Z" fill="#C7EBFF"/>
<path d="M9.0338 24C8.91853 24 8.80256 23.9894 8.68702 23.9677C6.85983 23.6242 5.19267 22.7414 3.86578 21.4145C2.11594 19.6646 1.15228 17.3382 1.15228 14.8635C1.15228 12.3888 2.11599 10.0623 3.86578 8.31248C5.11495 7.06331 6.64495 6.2166 8.3333 5.83237L8.07061 5.56968C7.35356 4.85259 7.32816 3.67982 8.01399 2.95532C8.36269 2.58693 8.83374 2.38021 9.34022 2.37328C9.84717 2.36517 10.3232 2.55979 10.6815 2.91801L14.0365 6.27304C14.388 6.62446 14.5814 7.09167 14.5814 7.58864C14.5814 8.08561 14.3879 8.55281 14.0365 8.90428L10.6815 12.2593C10.33 12.6107 9.86283 12.8042 9.36581 12.8042C8.85272 12.8042 8.37478 12.5997 8.01999 12.2283C7.43766 11.6188 7.36092 10.6904 7.77961 9.98245C6.02588 10.9247 4.87331 12.7685 4.87331 14.8634C4.87331 17.5257 6.77067 19.8165 9.3848 20.3106C10.2598 20.4759 10.8948 21.2445 10.8948 22.1383C10.8948 22.6937 10.6496 23.2157 10.2221 23.5703C9.88435 23.8507 9.46467 24 9.0338 24ZM9.36628 3.32929C9.36202 3.32929 9.3577 3.32929 9.35349 3.32938C9.1073 3.33271 8.87827 3.43335 8.70853 3.61265C8.37535 3.96463 8.39255 4.53918 8.74688 4.89356L9.65949 5.80617C9.78872 5.9354 9.83292 6.12693 9.77358 6.29971C9.71419 6.4725 9.56147 6.59634 9.38011 6.6187C7.53759 6.84642 5.86463 7.66589 4.542 8.98851C2.97277 10.5577 2.10853 12.6441 2.10853 14.8634C2.10853 17.0826 2.97272 19.169 4.542 20.7382C5.73216 21.9284 7.22658 22.7201 8.86374 23.0278C9.1305 23.078 9.40327 23.0075 9.61186 22.8344C9.8197 22.662 9.93881 22.4082 9.93881 22.1382C9.93881 21.7037 9.63122 21.3301 9.20747 21.2501C6.14217 20.6708 3.91735 17.9848 3.91735 14.8634C3.91735 13.3161 4.47249 11.8161 5.48058 10.6397C6.47728 9.47657 7.85274 8.69943 9.35363 8.45132C9.55856 8.41753 9.76191 8.51981 9.85683 8.70454C9.9518 8.88928 9.91655 9.11423 9.76969 9.26109L8.74622 10.2846C8.39072 10.6401 8.37521 11.2157 8.71163 11.5679C8.88427 11.7485 9.11667 11.8481 9.36609 11.8481C9.60769 11.8481 9.83475 11.754 10.0056 11.5832L13.3606 8.2282C13.5314 8.05739 13.6255 7.83028 13.6255 7.58873C13.6255 7.34714 13.5314 7.12007 13.3606 6.94921L10.0056 3.59423C9.83438 3.42309 9.60783 3.32929 9.36628 3.32929Z" fill="black"/>
<path d="M10.757 10.231C10.6346 10.231 10.5122 10.1844 10.4189 10.091C10.2322 9.90431 10.2322 9.60159 10.4189 9.41484L10.4853 9.34842C10.672 9.16171 10.9747 9.16171 11.1615 9.34842C11.3482 9.53512 11.3482 9.83784 11.1615 10.0246L11.0951 10.091C11.0017 10.1844 10.8793 10.231 10.757 10.231Z" fill="black"/>
<path d="M11.7562 9.23437C11.6339 9.23437 11.5116 9.18773 11.4182 9.09436C11.2315 8.90765 11.2314 8.60493 11.4182 8.41823L12.5159 7.32042C12.7027 7.13372 13.0053 7.13367 13.1921 7.32042C13.3788 7.50712 13.3788 7.80984 13.1921 7.99654L12.0943 9.09431C12.0009 9.18764 11.8786 9.23437 11.7562 9.23437Z" fill="black"/>
<path d="M13.5832 1.86169C13.5832 0.994178 14.3721 0.342006 15.2246 0.502225C16.9464 0.825803 18.5303 1.65783 19.7961 2.9236C21.4556 4.58312 22.3696 6.78962 22.3696 9.13651C22.3696 11.4834 21.4556 13.6899 19.7961 15.3494C18.3976 16.7479 16.6106 17.6168 14.6785 17.8556L15.5912 18.7683C16.1238 19.3009 16.1565 20.1688 15.6386 20.7159C15.1014 21.2835 14.2055 21.2927 13.6564 20.7438L10.3014 17.3888C9.76154 16.8489 9.76154 15.9736 10.3014 15.4337L13.6564 12.0787C13.9264 11.8088 14.2802 11.6738 14.634 11.6738C14.9978 11.6738 15.3616 11.8164 15.6342 12.1018C16.1562 12.6482 16.1263 13.5191 15.5919 14.0535L14.5685 15.0769C17.4216 14.6053 19.6046 12.1213 19.6046 9.13651C19.6046 6.19908 17.4905 3.74621 14.7039 3.21957C14.0527 3.09657 13.5832 2.52437 13.5832 1.86169Z" fill="#C7EBFF"/>
<path d="M14.6333 21.6268C14.1365 21.6268 13.6704 21.4339 13.3184 21.0819L9.96342 17.7269C9.23798 17.0015 9.23798 15.8211 9.96342 15.0956L13.3185 11.7406C13.6699 11.3892 14.1371 11.1957 14.6341 11.1957C15.1472 11.1957 15.6251 11.4002 15.9799 11.7716C16.5623 12.3811 16.639 13.3095 16.2203 14.0175C17.9741 13.0752 19.1266 11.2314 19.1266 9.1365C19.1266 6.47423 17.2292 4.1834 14.6151 3.68934C13.7401 3.52401 13.1051 2.75535 13.1051 1.86163C13.1051 1.30612 13.3503 0.784213 13.7778 0.429556C14.2061 0.0742436 14.7658 -0.0704595 15.3129 0.0322905C17.1401 0.375697 18.8072 1.25854 20.1342 2.58543C21.8841 4.33528 22.8477 6.66182 22.8477 9.1364C22.8477 11.6111 21.884 13.9376 20.1342 15.6874C18.885 16.9366 17.3549 17.7833 15.6667 18.1675L15.9293 18.4302C16.6463 19.1473 16.6717 20.32 15.9859 21.0445C15.6372 21.4129 15.1662 21.6196 14.6596 21.6266C14.6508 21.6268 14.642 21.6268 14.6333 21.6268ZM14.634 12.1519C14.3924 12.1519 14.1654 12.246 13.9945 12.4168L10.6395 15.7717C10.2869 16.1243 10.2869 16.6981 10.6395 17.0507L13.9945 20.4057C14.1687 20.5799 14.4026 20.6739 14.6465 20.6705C14.8927 20.6672 15.1217 20.5665 15.2915 20.3873C15.6247 20.0353 15.6075 19.4607 15.2532 19.1063L14.3405 18.1937C14.2113 18.0645 14.167 17.873 14.2264 17.7002C14.2858 17.5274 14.4385 17.4036 14.6198 17.3812C16.4623 17.1535 18.1353 16.334 19.4579 15.0114C21.0271 13.4422 21.8914 11.3558 21.8914 9.13654C21.8914 6.91734 21.0272 4.83089 19.4579 3.2617C18.2677 2.07149 16.7733 1.27978 15.1362 0.972088C14.8693 0.921838 14.5968 0.992385 14.3881 1.16554C14.1803 1.3379 14.0611 1.59168 14.0611 1.86168C14.0611 2.29621 14.3687 2.66976 14.7924 2.74982C17.8578 3.32915 20.0826 6.01509 20.0826 9.13654C20.0826 10.6839 19.5275 12.1839 18.5194 13.3603C17.5227 14.5234 16.1472 15.3005 14.6463 15.5486C14.4417 15.5824 14.2381 15.4802 14.1431 15.2954C14.0482 15.1107 14.0834 14.8857 14.2303 14.7389L15.2537 13.7154C15.6092 13.3599 15.6247 12.7842 15.2883 12.4321C15.1158 12.2514 14.8834 12.1519 14.634 12.1519Z" fill="black"/>
</g>
<defs>
<clipPath id="clip0_15_559">
<rect width="24" height="24" fill="white"/>
</clipPath>
</defs>
</svg>
