<svg width="22" height="24" viewBox="0 0 22 24" fill="none" xmlns="http://www.w3.org/2000/svg">
<path d="M21.1019 0.478088H0.898315V3.26246H21.1019V0.478088Z" fill="#C7EBFF"/>
<path d="M9.4282 12.6389H12.5719L21.1018 3.2626H0.898315L9.4282 12.6389Z" fill="#C7EBFF"/>
<path d="M12.5718 23.5219L9.4281 20.7783V12.6389H12.5718V23.5219Z" fill="#C7EBFF"/>
<path d="M21.54 0.478077C21.54 0.214031 21.3438 0 21.1018 0H0.898321C0.656321 0 0.460083 0.214031 0.460083 0.478077V3.26259C0.460083 3.39393 0.508681 3.51281 0.58727 3.59924V3.59934L0.588302 3.60056C0.588344 3.60065 0.58843 3.6007 0.588516 3.60079L8.98992 12.8359V20.7783C8.98992 20.9236 9.05042 21.0609 9.15441 21.1516L12.2981 23.8952C12.3774 23.9644 12.4743 24 12.572 24C12.6365 24 12.7013 23.9844 12.7617 23.9528C12.9136 23.8732 13.0101 23.7057 13.0101 23.5219V12.8359L21.4116 3.60074C21.4117 3.60065 21.4117 3.6006 21.4118 3.60051L21.4129 3.59934V3.59924C21.4914 3.51285 21.54 3.39388 21.54 3.26259V0.478077ZM1.33656 0.956154H20.6636V2.78451H1.33656V0.956154ZM12.1337 22.5271L9.86644 20.5485V13.117H12.1337V22.5271ZM12.3894 12.1609H9.61069L1.95067 3.74071H20.0495L12.3894 12.1609Z" fill="black"/>
<path d="M7.98651 9.63892C8.07206 9.7323 8.18425 9.77894 8.2964 9.77894C8.40854 9.77894 8.52069 9.7323 8.60624 9.63892C8.77743 9.45222 8.77743 9.14955 8.60629 8.9628L8.41761 8.75697C8.2466 8.57031 7.96906 8.57022 7.79783 8.75697C7.62664 8.94367 7.62664 9.24635 7.79779 9.4331L7.98651 9.63892Z" fill="black"/>
<path d="M3.81599 5.08916L6.83402 8.38156C6.91961 8.47489 7.03176 8.52157 7.14391 8.52157C7.25606 8.52157 7.36821 8.47489 7.4538 8.38156C7.62494 8.19485 7.62494 7.89214 7.4538 7.70539L4.43577 4.41303C4.26458 4.22638 3.98717 4.22638 3.81594 4.41303C3.64484 4.59978 3.64484 4.9025 3.81599 5.08916Z" fill="black"/>
</svg>
