<svg width="24" height="24" viewBox="0 0 24 24" fill="none" xmlns="http://www.w3.org/2000/svg">
<path d="M11.8657 0.49588C14.9386 0.49588 17.8275 1.69251 20.0004 3.86535C22.1732 6.03819 23.3698 8.92717 23.3698 12C23.3698 15.0729 22.1732 17.9618 20.0004 20.1347C17.8275 22.3075 14.9386 23.5041 11.8657 23.5041C8.5671 23.5041 5.42245 22.0848 3.23816 19.6101C2.51325 18.7888 2.59139 17.5354 3.4127 16.8105C4.23401 16.0856 5.48741 16.1638 6.21232 16.985C7.64389 18.607 9.70447 19.5372 11.8657 19.5372C16.0217 19.5372 19.4029 16.156 19.4029 12C19.4029 7.84399 16.0217 4.46282 11.8657 4.46282C10.5083 4.46282 9.20211 4.82109 8.05859 5.49219L5.23635 2.59643C7.16399 1.23254 9.46204 0.49588 11.8657 0.49588Z" fill="#C7EBFF"/>
<path d="M0.693859 7.61123L2.03384 2.85447C2.37802 1.63261 3.91591 1.24161 4.80187 2.15069L5.2363 2.59647L8.05853 5.49224L8.25148 5.69019C9.13749 6.59927 8.70708 8.12654 7.47678 8.43923L2.68715 9.65649C1.45705 9.96908 0.349727 8.8329 0.693859 7.61123Z" fill="#50A5DC"/>
<path d="M20.351 3.51471C18.0845 1.2482 15.071 0 11.8657 0C9.51068 0 7.25037 0.673934 5.30126 1.95263L5.15702 1.80461C4.61578 1.24929 3.84396 1.0318 3.09247 1.22291C2.34098 1.41402 1.76677 1.97365 1.55652 2.72003L0.216588 7.47674C0.00638989 8.22303 0.203944 9.00005 0.745084 9.55527C1.15705 9.97795 1.7026 10.2049 2.27112 10.2049C2.44938 10.2049 2.62993 10.1826 2.80933 10.137L7.59897 8.91972C8.3505 8.72871 8.92472 8.16912 9.13506 7.42274C9.3106 6.79983 9.20106 6.15595 8.84568 5.63702C9.78277 5.19238 10.8152 4.95868 11.8657 4.95868C15.7483 4.95868 18.907 8.1174 18.907 12C18.907 15.8826 15.7483 19.0413 11.8657 19.0413C9.84668 19.0413 7.92158 18.1722 6.58402 16.6568C5.67941 15.632 4.1095 15.5341 3.08454 16.4387C2.58803 16.877 2.29189 17.4823 2.25069 18.1433C2.20948 18.8042 2.42816 19.4417 2.86641 19.9382C5.14472 22.5195 8.42488 24 11.8657 24C15.071 24 18.0846 22.7518 20.351 20.4853C22.6176 18.2188 23.8658 15.2053 23.8658 12C23.8658 8.79466 22.6175 5.78122 20.351 3.51471ZM8.18052 7.15383C8.06746 7.55509 7.75873 7.85593 7.3547 7.95863L2.56507 9.17583C2.16113 9.27858 1.74624 9.1616 1.45531 8.86309C1.16439 8.56458 1.05817 8.14686 1.17118 7.7456L2.51117 2.98884C2.62417 2.58759 2.93285 2.28669 3.33688 2.184C3.74102 2.08131 4.15586 2.19818 4.44678 2.49674L6.08672 4.17937L7.70344 5.83825C7.70359 5.8384 7.70374 5.8385 7.70389 5.83864L7.89644 6.0362C8.18736 6.33476 8.29358 6.75258 8.18052 7.15383ZM19.6497 19.784C17.5706 21.8632 14.8062 23.0083 11.8657 23.0083C8.70921 23.0083 5.70009 21.6501 3.60991 19.282C3.34695 18.984 3.21579 18.6015 3.24049 18.205C3.26518 17.8084 3.4429 17.4452 3.74077 17.1823C4.02317 16.933 4.37434 16.8107 4.72432 16.8107C5.13654 16.8107 5.54692 16.9806 5.84052 17.3131C7.36621 19.0417 9.5623 20.0331 11.8657 20.0331C16.2952 20.0331 19.8988 16.4294 19.8988 12C19.8988 7.57056 16.2951 3.96694 11.8657 3.96694C10.566 3.96694 9.28938 4.27993 8.14958 4.87507L7.57888 4.2895L6.00743 2.67709C7.75725 1.57264 9.77037 0.991736 11.8657 0.991736C14.8062 0.991736 17.5706 2.13679 19.6497 4.21597C21.729 6.29514 22.874 9.05955 22.874 12C22.874 14.9404 21.7289 17.7048 19.6497 19.784Z" fill="black"/>
<path d="M20.8364 16.6615C20.7671 16.6615 20.6967 16.6469 20.6296 16.6161C20.3808 16.5017 20.2718 16.2073 20.3861 15.9585C20.9511 14.7291 21.2376 13.4139 21.2376 12.0496C21.2376 10.2764 20.7402 8.55026 19.7991 7.0579C19.6531 6.82623 19.7224 6.52003 19.9541 6.374C20.1857 6.22782 20.4919 6.29729 20.638 6.52896C21.679 8.1799 22.2293 10.0889 22.2293 12.0496C22.2293 13.5579 21.9124 15.0124 21.2872 16.3726C21.2038 16.5544 21.0241 16.6615 20.8364 16.6615Z" fill="black"/>
<path d="M18.6094 5.34168C18.4879 5.34168 18.3663 5.2973 18.2705 5.20775C17.583 4.56376 16.8065 4.02897 15.9627 3.61814C15.7164 3.49824 15.614 3.20146 15.7339 2.95522C15.8537 2.70902 16.1506 2.60657 16.3968 2.72642C17.3298 3.18074 18.1884 3.77201 18.9485 4.48388C19.1484 4.67107 19.1587 4.9849 18.9715 5.18479C18.8738 5.28902 18.7418 5.34168 18.6094 5.34168Z" fill="black"/>
<path d="M14.784 14.1252L12.8678 12.209V7.48762C12.8678 6.93988 12.4238 6.49588 11.8761 6.49588C11.3284 6.49588 10.8844 6.93988 10.8844 7.48762V12.5951C10.8844 12.5991 10.8849 12.603 10.8849 12.6071C10.8816 12.8652 10.9779 13.1242 11.1748 13.3211L13.3814 15.5277C13.575 15.7214 13.8289 15.8182 14.0827 15.8182C14.3365 15.8182 14.5903 15.7214 14.784 15.5277C15.1712 15.1404 15.1712 14.5125 14.784 14.1252Z" fill="#50A5DC"/>
<path d="M14.0827 16.314C13.6853 16.314 13.3117 16.1593 13.0308 15.8783L10.8242 13.6717C10.5428 13.3903 10.3886 13.0171 10.389 12.6191C10.3887 12.6111 10.3885 12.6031 10.3885 12.595V7.4876C10.3885 6.66734 11.0558 6 11.8761 6C12.6963 6 13.3637 6.66734 13.3637 7.4876V12.0036L15.1346 13.7745C15.7145 14.3545 15.7145 15.2983 15.1346 15.8783C14.8537 16.1593 14.4801 16.314 14.0827 16.314ZM11.3802 12.5816C11.3805 12.5881 11.3807 12.5946 11.3808 12.6012C11.3809 12.6054 11.3808 12.6094 11.3808 12.6135C11.3791 12.7487 11.4304 12.8755 11.5255 12.9705L13.7321 15.1771C13.8257 15.2708 13.9502 15.3224 14.0827 15.3224C14.2151 15.3224 14.3397 15.2708 14.4333 15.1771C14.6266 14.9838 14.6266 14.6692 14.4333 14.4759L12.5171 12.5597C12.4242 12.4668 12.3719 12.3406 12.3719 12.2091V7.4876C12.3719 7.21418 12.1494 6.99174 11.876 6.99174C11.6026 6.99174 11.3802 7.21418 11.3802 7.4876L11.3802 12.5816Z" fill="black"/>
</svg>
