<svg width="24" height="24" viewBox="0 0 24 24" fill="none" xmlns="http://www.w3.org/2000/svg">
<g clip-path="url(#clip0_23_900)">
<path d="M10.5589 14.1523H13.4411V20.9037H10.5589V14.1523Z" fill="#C7EBFF"/>
<path d="M6.52219 5.31138L4.52917 6.67557V3.34915H6.52219V5.31138Z" fill="#C7EBFF"/>
<path d="M0.302217 9.56865L3.14052 7.62603V2.65481C3.14052 2.27137 3.4514 1.96048 3.83485 1.96048H7.21652C7.60002 1.96048 7.91085 2.27137 7.91085 2.65481V4.36095C7.91085 4.36095 11.5553 1.86391 11.6031 1.83064C11.833 1.67042 12.1472 1.6629 12.3922 1.83064L23.6978 9.56865C24.0142 9.78522 24.0952 10.2173 23.8786 10.5338C23.7441 10.7303 23.5265 10.836 23.305 10.836C23.1699 10.836 23.0333 10.7967 22.9134 10.7146L20.8594 9.30874V21.598C20.8594 21.9815 20.5486 22.2923 20.1651 22.2923H3.83491C3.45146 22.2923 3.14058 21.9815 3.14058 21.598V9.30868L1.08658 10.7145C0.966633 10.7966 0.830139 10.836 0.695034 10.836C0.4736 10.836 0.255928 10.7303 0.121403 10.5337C-0.095171 10.2173 -0.0142231 9.78522 0.302217 9.56865ZM10.5588 20.9037H13.4411V14.1523H10.5588V20.9037ZM4.52918 20.9037H9.17013V13.458C9.17013 13.0745 9.48101 12.7637 9.86446 12.7637H14.1354C14.5188 12.7637 14.8297 13.0745 14.8297 13.458V20.9037H19.4707V8.35826L11.9999 3.24499L4.52912 8.35832V20.9037H4.52918ZM4.52918 6.67555L6.52219 5.31143V3.34914H4.52918V6.67555Z" fill="black"/>
</g>
<defs>
<clipPath id="clip0_23_900">
<rect width="24" height="24" fill="white" transform="matrix(-1 0 0 1 24 0)"/>
</clipPath>
</defs>
</svg>
